<svg xmlns="http://www.w3.org/2000/svg" width="0" height="0" aria-hidden="true">
  <!-- Domain glyphs drawn for this app, not borrowed. Injected by app.js. -->
  <defs>
      <symbol id="i-panel" viewBox="0 0 16 16">
        <path d="M2.5 8.6 8 5.4l5.5 3.2M2.5 8.6v3L8 14.8l5.5-3.2v-3M2.5 8.6 8 11.8l5.5-3.2M8 1.2 2.5 4.4 8 7.6l5.5-3.2L8 1.2Z"
              fill="none" stroke="currentColor" stroke-width="1.2" stroke-linejoin="round"/>
      </symbol>
      <symbol id="i-world" viewBox="0 0 16 16">
        <circle cx="8" cy="8" r="6.1" fill="none" stroke="currentColor" stroke-width="1.2"/>
        <path d="M2 6.4h12M2.4 10.2h11.2M8 1.9c1.7 1.7 2.5 3.9 2.5 6.1S9.7 12.4 8 14.1C6.3 12.4 5.5 10.2 5.5 8S6.3 3.6 8 1.9Z"
              fill="none" stroke="currentColor" stroke-width="1.2"/>
      </symbol>
      <symbol id="i-mods" viewBox="0 0 16 16">
        <path d="M6.6 2.2h2.8v1.6a1.4 1.4 0 0 0 2.1 1.2l.7 1.2a1.4 1.4 0 0 0 0 2.4l-.7 1.2a1.4 1.4 0 0 0-2.1 1.2v1.6H6.6v-1.6a1.4 1.4 0 0 0-2.1-1.2l-.7-1.2a1.4 1.4 0 0 0 0-2.4l.7-1.2a1.4 1.4 0 0 0 2.1-1.2V2.2Z"
              fill="none" stroke="currentColor" stroke-width="1.2" stroke-linejoin="round"/>
        <circle cx="8" cy="8" r="1.7" fill="none" stroke="currentColor" stroke-width="1.2"/>
      </symbol>
      <symbol id="i-players" viewBox="0 0 16 16">
        <circle cx="6.2" cy="5.6" r="2.5" fill="none" stroke="currentColor" stroke-width="1.2"/>
        <path d="M1.9 13.6c0-2.4 1.9-4.1 4.3-4.1s4.3 1.7 4.3 4.1" fill="none" stroke="currentColor" stroke-width="1.2" stroke-linecap="round"/>
        <path d="M11 3.5a2.3 2.3 0 0 1 0 4.3M12.2 9.9c1.3.5 2.1 1.7 2.1 3.3" fill="none" stroke="currentColor" stroke-width="1.2" stroke-linecap="round"/>
      </symbol>
      <symbol id="i-backup" viewBox="0 0 16 16">
        <path d="M13.4 8a5.4 5.4 0 1 1-1.7-3.9" fill="none" stroke="currentColor" stroke-width="1.2" stroke-linecap="round"/>
        <path d="M13.6 2.1v3.2h-3.2" fill="none" stroke="currentColor" stroke-width="1.2" stroke-linecap="round" stroke-linejoin="round"/>
        <path d="M8 5.4V8l1.9 1.4" fill="none" stroke="currentColor" stroke-width="1.2" stroke-linecap="round"/>
      </symbol>
      <symbol id="i-settings" viewBox="0 0 16 16">
        <path d="M2.6 4.4h10.8M2.6 8h10.8M2.6 11.6h10.8" fill="none" stroke="currentColor" stroke-width="1.2" stroke-linecap="round"/>
        <circle cx="5.6" cy="4.4" r="1.5" fill="var(--surface-1)" stroke="currentColor" stroke-width="1.2"/>
        <circle cx="10.2" cy="8" r="1.5" fill="var(--surface-1)" stroke="currentColor" stroke-width="1.2"/>
        <circle cx="6.4" cy="11.6" r="1.5" fill="var(--surface-1)" stroke="currentColor" stroke-width="1.2"/>
      </symbol>
      <symbol id="i-console" viewBox="0 0 16 16">
        <rect x="1.8" y="2.8" width="12.4" height="10.4" rx="1.6" fill="none" stroke="currentColor" stroke-width="1.2"/>
        <path d="M4.6 6.4 6.6 8l-2 1.6M8.4 10h3.2" fill="none" stroke="currentColor" stroke-width="1.2" stroke-linecap="round" stroke-linejoin="round"/>
      </symbol>
      <symbol id="i-search" viewBox="0 0 16 16">
        <circle cx="7.2" cy="7.2" r="4.6" fill="none" stroke="currentColor" stroke-width="1.3"/>
        <path d="m10.6 10.6 3 3" stroke="currentColor" stroke-width="1.3" stroke-linecap="round"/>
      </symbol>
      <symbol id="i-plus" viewBox="0 0 16 16">
        <path d="M8 3.4v9.2M3.4 8h9.2" stroke="currentColor" stroke-width="1.4" stroke-linecap="round"/>
      </symbol>
      <symbol id="i-folder" viewBox="0 0 16 16">
        <path d="M1.9 4.3c0-.7.6-1.3 1.3-1.3h2.6l1.4 1.7h5c.7 0 1.3.6 1.3 1.3v5.7c0 .7-.6 1.3-1.3 1.3H3.2c-.7 0-1.3-.6-1.3-1.3V4.3Z"
              fill="none" stroke="currentColor" stroke-width="1.2" stroke-linejoin="round"/>
      </symbol>
      <symbol id="i-copy" viewBox="0 0 16 16">
        <rect x="5.6" y="5.6" width="8" height="8" rx="1.4" fill="none" stroke="currentColor" stroke-width="1.2"/>
        <path d="M10.4 5.6V3.8c0-.8-.6-1.4-1.4-1.4H3.8c-.8 0-1.4.6-1.4 1.4V9c0 .8.6 1.4 1.4 1.4h1.8"
              fill="none" stroke="currentColor" stroke-width="1.2"/>
      </symbol>
      <symbol id="i-check" viewBox="0 0 16 16">
        <path d="m3.4 8.4 3 3 6.2-6.8" fill="none" stroke="currentColor" stroke-width="1.6" stroke-linecap="round" stroke-linejoin="round"/>
      </symbol>
      <symbol id="i-trash" viewBox="0 0 16 16">
        <path d="M3 4.6h10M6.4 4.6V3.4c0-.6.4-1 1-1h1.2c.6 0 1 .4 1 1v1.2M4.4 4.6l.6 8c0 .6.5 1 1 1h4c.5 0 1-.4 1-1l.6-8"
              fill="none" stroke="currentColor" stroke-width="1.2" stroke-linecap="round" stroke-linejoin="round"/>
      </symbol>
      <symbol id="i-power" viewBox="0 0 16 16">
        <path d="M8 2.4v5.2" stroke="currentColor" stroke-width="1.5" stroke-linecap="round"/>
        <path d="M11.7 4.6a5 5 0 1 1-7.4 0" fill="none" stroke="currentColor" stroke-width="1.5" stroke-linecap="round"/>
      </symbol>
      <symbol id="i-download" viewBox="0 0 16 16">
        <path d="M8 2.6v7.2M4.8 7l3.2 3 3.2-3M2.8 13h10.4" fill="none" stroke="currentColor" stroke-width="1.2" stroke-linecap="round" stroke-linejoin="round"/>
      </symbol>
      <symbol id="i-external" viewBox="0 0 16 16">
        <path d="M9 3h4v4M13 3 7.6 8.4M11.4 9.6v2.8c0 .7-.6 1.2-1.2 1.2H3.8c-.7 0-1.2-.6-1.2-1.2V5.8c0-.7.6-1.2 1.2-1.2h2.8"
              fill="none" stroke="currentColor" stroke-width="1.2" stroke-linecap="round" stroke-linejoin="round"/>
      </symbol>
      <symbol id="i-chev" viewBox="0 0 16 16">
        <path d="m5 6.5 3 3 3-3" fill="none" stroke="currentColor" stroke-width="1.3" stroke-linecap="round" stroke-linejoin="round"/>
      </symbol>
      <symbol id="i-globe" viewBox="0 0 16 16">
        <circle cx="8" cy="8" r="5.8" fill="none" stroke="currentColor" stroke-width="1.2"/>
        <path d="M2.4 6.2h11.2M2.4 9.8h11.2M8 2.2c1.6 1.6 2.4 3.7 2.4 5.8S9.6 12.2 8 13.8C6.4 12.2 5.6 10.1 5.6 8S6.4 3.8 8 2.2Z" fill="none" stroke="currentColor" stroke-width="1.1"/>
      </symbol>
      <symbol id="i-router" viewBox="0 0 16 16">
        <rect x="1.8" y="8.6" width="12.4" height="5.2" rx="1.4" fill="none" stroke="currentColor" stroke-width="1.2"/>
        <path d="M8 8.6V5.4M5.4 3.4a3.7 3.7 0 0 1 5.2 0M7 5.2a1.4 1.4 0 0 1 2 0" fill="none" stroke="currentColor" stroke-width="1.2" stroke-linecap="round"/>
        <path d="M4.4 11.2h.01M6.6 11.2h.01" stroke="currentColor" stroke-width="1.4" stroke-linecap="round"/>
      </symbol>
      <symbol id="i-home" viewBox="0 0 16 16">
        <path d="M2.6 7 8 2.6 13.4 7v6.2c0 .6-.5 1.1-1.1 1.1H3.7c-.6 0-1.1-.5-1.1-1.1V7Z" fill="none" stroke="currentColor" stroke-width="1.2" stroke-linejoin="round"/>
        <path d="M6.4 14.3V9.4h3.2v4.9" fill="none" stroke="currentColor" stroke-width="1.2" stroke-linejoin="round"/>
      </symbol>
      <symbol id="i-refresh" viewBox="0 0 16 16">
        <path d="M13.4 8a5.4 5.4 0 1 1-1.6-3.8" fill="none" stroke="currentColor" stroke-width="1.3" stroke-linecap="round"/>
        <path d="M13.6 2.2v3.2h-3.2" fill="none" stroke="currentColor" stroke-width="1.3" stroke-linecap="round" stroke-linejoin="round"/>
      </symbol>
      <symbol id="i-pulse" viewBox="0 0 16 16">
        <path d="M1.6 8h3l1.6-4.4 2.4 8.8L10.8 8h3.6" fill="none" stroke="currentColor" stroke-width="1.3" stroke-linecap="round" stroke-linejoin="round"/>
      </symbol>
      <symbol id="i-files" viewBox="0 0 16 16">
        <path d="M3.4 1.9h4.4l1.6 1.8h3.2c.6 0 1 .5 1 1v8.4c0 .6-.4 1-1 1H3.4c-.6 0-1-.4-1-1V2.9c0-.6.4-1 1-1Z" fill="none" stroke="currentColor" stroke-width="1.2" stroke-linejoin="round"/>
        <path d="M5.2 7.4h5.6M5.2 10h3.8" stroke="currentColor" stroke-width="1.2" stroke-linecap="round"/>
      </symbol>
      <symbol id="i-file" viewBox="0 0 16 16">
        <path d="M4 1.9h5l3 3v9.2c0 .5-.4.9-.9.9H4c-.5 0-.9-.4-.9-.9V2.8c0-.5.4-.9.9-.9Z" fill="none" stroke="currentColor" stroke-width="1.2" stroke-linejoin="round"/>
        <path d="M9 1.9v3h3" fill="none" stroke="currentColor" stroke-width="1.2" stroke-linejoin="round"/>
      </symbol>
      <symbol id="i-warn" viewBox="0 0 16 16">
        <path d="M8 2.6 14.2 13H1.8L8 2.6Z" fill="none" stroke="currentColor" stroke-width="1.2" stroke-linejoin="round"/>
        <path d="M8 6.6v3M8 11.4h.01" stroke="currentColor" stroke-width="1.4" stroke-linecap="round"/>
      </symbol>
    </defs>
</svg>
